<svg width="57" height="56" viewBox="0 0 57 56" fill="none" xmlns="http://www.w3.org/2000/svg">
<path d="M50.6883 9.8629C49.0465 8.83025 47.2196 8.05265 45.2888 7.46563C40.1997 2.76813 33.281 0.212849 25.8272 1.09164C20.1663 1.75905 15.3295 4.18681 11.6231 7.75741C9.57929 8.43105 7.64706 9.31746 5.93592 10.5005C2.29255 13.0191 2.24404 19.1657 1.57732 23.0829C0.716552 28.1387 -0.395796 32.8375 4.33497 36.5378C5.46742 37.4235 6.66016 38.1138 7.92359 38.6231C9.87384 41.543 12.2247 44.2479 14.4216 46.7838C19.0034 52.0697 24.7814 56.5759 32.2746 54.5384C38.6958 52.7912 42.9934 46.8753 46.8959 41.8472C47.8621 40.6039 48.754 39.346 49.5559 38.0666C50.9226 37.386 52.2096 36.51 53.4113 35.4413C57.7346 31.6018 56.2105 26.5807 55.3699 21.7078C54.6498 17.553 54.593 12.3184 50.6883 9.8629ZM36.4031 45.8794C31.8346 47.7028 26.3636 47.4519 21.734 45.8794C19.5703 45.1434 20.499 41.7017 22.6814 42.4412C26.7774 43.8328 31.4104 44.0574 35.4551 42.4412C37.5924 41.5887 38.5107 45.0366 36.4031 45.8794ZM48.8309 35.2951C44.9658 38.1831 40.3418 35.5529 35.9651 34.9056C32.4541 34.3872 28.8939 34.3193 25.3538 34.4815C23.4521 34.5681 21.5372 34.8148 19.6687 35.1752C17.925 35.5093 15.2415 36.8621 13.635 36.8198C9.73731 36.4428 6.24502 34.0989 4.98921 30.31C4.53111 28.9267 4.99753 27.3715 5.21376 25.9867C5.86176 21.8409 6.11542 16.8516 7.8633 12.9948C8.61664 11.3335 11.7943 10.637 13.3058 10.1976C16.8896 9.15598 20.6653 8.83025 24.3752 8.62233C31.75 8.20928 40.8331 8.43105 47.4746 12.141C50.5788 13.875 50.5553 19.0015 51.109 22.0925C52.0114 27.1226 53.6768 31.676 48.8309 35.2951Z" fill="white"/>
</svg>
